<svg width="1500" height="1500" viewBox="0 0 1500 1500" fill="none" xmlns="http://www.w3.org/2000/svg">
<rect width="1500" height="1500" fill="white"/>
<g opacity="0.9">
<path d="M699.5 221L780.04 267.5L455.04 830.417L374.5 783.917L699.5 221Z" fill="#7C0C77"/>
<path d="M699.5 221L780.04 267.5L455.04 830.417L374.5 783.917L699.5 221Z" fill="#7C0C77"/>
</g>
<g opacity="0.9">
<path d="M1044.93 668.695L1125.47 715.195L800.472 1278.11L719.931 1231.61L1044.93 668.695Z" fill="black"/>
<path d="M1044.93 668.695L1125.47 715.195L800.472 1278.11L719.931 1231.61L1044.93 668.695Z" fill="black"/>
</g>
<path d="M758.228 503.308L958.369 618.654L740.699 995.277L540.817 879.875L758.228 503.308Z" fill="#007774"/>
<path d="M586.047 917.535C616.422 864.923 663.535 835.256 691.276 851.273C719.017 867.289 716.881 922.923 686.506 975.535C686.506 975.535 664.017 962.552 636.276 946.535C608.535 930.519 586.047 917.535 586.047 917.535Z" fill="white"/>
<path d="M914.006 581.494C883.63 634.106 836.517 663.773 808.776 647.757C781.035 631.74 783.171 576.106 813.547 523.494C813.547 523.494 836.035 536.478 863.776 552.494C891.517 568.51 914.006 581.494 914.006 581.494Z" fill="white"/>
<path d="M676.719 638.486L881.967 756.986L890.967 741.398L685.719 622.898L676.719 638.486Z" fill="#DFDFDF" stroke="#007774" stroke-width="4" stroke-dasharray="2 2"/>
</svg>
