<svg width="500" height="500" viewBox="0 0 500 500" fill="none" xmlns="http://www.w3.org/2000/svg">
<g clip-path="url(#clip0_1423_3)">
<path d="M448.055 95.8839L404.039 139.901C456.15 213.425 449.148 316.085 383.117 382.117C317.085 448.148 214.425 455.15 140.901 403.039L96.8839 447.055C194.845 522.884 336.421 515.673 426.547 425.547C516.673 335.421 523.884 193.845 448.055 95.8839Z" fill="black"/>
<path d="M358.023 94.2038L402.08 50.1467C304.159 -24.8318 163.261 -17.3558 73.4527 72.4528C-16.3558 162.261 -23.8318 303.159 51.1467 401.08L95.2038 357.023C43.9193 283.575 51.1739 181.593 116.883 115.883C182.593 50.1739 284.575 42.9193 358.023 94.2038Z" fill="#800080"/>
<path d="M202.365 134L297.635 134L365 201.365V296.635L297.635 364H202.365L135 296.635L135 201.365L202.365 134Z" fill="#FF0000"/>
<path d="M168.202 230.72H331.327V268.253H168.202V230.72Z" fill="white"/>
</g>
<defs>
<clipPath id="clip0_1423_3">
<rect width="500" height="500" fill="white"/>
</clipPath>
</defs>
</svg>
